<?xml version="1.0" encoding="UTF-8" standalone="no" ?>
<!DOCTYPE svg PUBLIC "-//W3C//DTD SVG 1.1//EN" "http://www.w3.org/Graphics/SVG/1.1/DTD/svg11.dtd">
<svg xmlns="http://www.w3.org/2000/svg" xmlns:xlink="http://www.w3.org/1999/xlink" version="1.1" width="1080" height="1080" viewBox="0 0 1080 1080" xml:space="preserve">
<desc>Created with Fabric.js 5.2.4</desc>
<defs>
</defs>
<g transform="matrix(1 0 0 1 540 540)" id="44409443-91fb-4efd-a752-aa8ad01dcac7"  >
<rect style="stroke: none; stroke-width: 1; stroke-dasharray: none; stroke-linecap: butt; stroke-dashoffset: 0; stroke-linejoin: miter; stroke-miterlimit: 4; fill: rgb(255,255,255); fill-rule: nonzero; opacity: 1; visibility: hidden;" vector-effect="non-scaling-stroke"  x="-540" y="-540" rx="0" ry="0" width="1080" height="1080" />
</g>
<g transform="matrix(1 0 0 1 540 540)" id="169eee46-f02c-4a43-970e-705d00b73edd"  >
</g>
<g transform="matrix(1 0 0 1 50 50)"  >
<rect style="stroke: none; stroke-width: 1; stroke-dasharray: none; stroke-linecap: butt; stroke-dashoffset: 0; stroke-linejoin: miter; stroke-miterlimit: 4; fill: rgb(255,255,255); fill-opacity: 0; fill-rule: nonzero; opacity: 1;" vector-effect="non-scaling-stroke"  x="-50" y="-50" rx="0" ry="0" width="100" height="100" />
</g>
<g transform="matrix(1 0 0 1 540 540)"  >
<rect style="stroke: none; stroke-width: 1; stroke-dasharray: none; stroke-linecap: butt; stroke-dashoffset: 0; stroke-linejoin: miter; stroke-miterlimit: 4; fill: rgb(255,255,255); fill-rule: nonzero; opacity: 1; visibility: hidden;" vector-effect="non-scaling-stroke"  x="-540" y="-540" rx="0" ry="0" width="1080" height="1080" />
</g>
<g transform="matrix(0.05 0 0 -0.05 520.49 511.76)"  >
<path style="stroke: none; stroke-width: 1; stroke-dasharray: none; stroke-linecap: butt; stroke-dashoffset: 0; stroke-linejoin: miter; stroke-miterlimit: 4; fill: rgb(232,232,247); fill-rule: nonzero; opacity: 1;" vector-effect="non-scaling-stroke"  transform=" translate(-19572.81, -15108.76)" d="M 12035.3 11457.7 C 13408.099999999999 8162.400000000001 15304.3 9921.300000000001 17715.1 10996.300000000001 C 19111.5 11618.900000000001 20117.699999999997 11656.000000000002 21543.399999999998 11128.7 C 23165.8 10528.5 25028.499999999996 10022.900000000001 26477.699999999997 11428.900000000001 C 29742.299999999996 14595.900000000001 26610.899999999998 21214.7 22714.299999999996 20433.300000000003 C 21394.599999999995 20168.700000000004 20386.599999999995 18921.200000000004 19096.799999999996 18673.300000000003 C 17842.699999999997 18432.200000000004 16799.399999999994 19766.200000000004 15740.799999999996 20334.600000000002 C 13869.399999999996 21339.500000000004 12431.099999999995 19908.800000000003 11747.799999999996 17836.4 C 11031.599999999995 15664.000000000002 11221.499999999996 13528.400000000001 12035.299999999996 11457.7" stroke-linecap="round" />
</g>
<g transform="matrix(0.05 0 0 -0.05 900.88 347.64)"  >
<path style="stroke: none; stroke-width: 1; stroke-dasharray: none; stroke-linecap: butt; stroke-dashoffset: 0; stroke-linejoin: miter; stroke-miterlimit: 4; fill: rgb(138,107,255); fill-rule: nonzero; opacity: 1;" vector-effect="non-scaling-stroke"  transform=" translate(-27635.9, -18396.25)" d="M 30244.8 20402.8 L 30244.8 16389.7 C 30244.8 16161 30057.7 15974 29829 15974 L 25442.9 15974 C 25214.2 15974 25027 16161 25027 16389.7 L 25027 20402.8 C 25027 20631.399999999998 25214.2 20818.5 25442.9 20818.5 L 29829 20818.5 C 30057.7 20818.5 30244.8 20631.4 30244.8 20402.8" stroke-linecap="round" />
</g>
<g transform="matrix(0.05 0 0 -0.05 900.88 248.45)"  >
<path style="stroke: none; stroke-width: 1; stroke-dasharray: none; stroke-linecap: butt; stroke-dashoffset: 0; stroke-linejoin: miter; stroke-miterlimit: 4; fill: rgb(41,47,82); fill-rule: nonzero; opacity: 1;" vector-effect="non-scaling-stroke"  transform=" translate(-27635.9, -20380.1)" d="M 30244.8 20402.8 L 30244.8 19941.7 L 25027 19941.7 L 25027 20402.8 C 25027 20631.399999999998 25214.2 20818.5 25442.9 20818.5 L 29829 20818.5 C 30057.7 20818.5 30244.8 20631.4 30244.8 20402.8" stroke-linecap="round" />
</g>
<g transform="matrix(0.05 0 0 -0.05 999.79 247.86)"  >
<path style="stroke: none; stroke-width: 1; stroke-dasharray: none; stroke-linecap: butt; stroke-dashoffset: 0; stroke-linejoin: miter; stroke-miterlimit: 4; fill: rgb(138,107,255); fill-rule: nonzero; opacity: 1;" vector-effect="non-scaling-stroke"  transform=" translate(-29766.7, -20382.25)" d="M 29621.2 20382.3 C 29621.2 20301.899999999998 29686.3 20236.7 29766.7 20236.7 C 29847 20236.7 29912.2 20301.9 29912.2 20382.3 C 29912.2 20462.6 29847 20527.8 29766.7 20527.8 C 29686.3 20527.8 29621.2 20462.6 29621.2 20382.3" stroke-linecap="round" />
</g>
<g transform="matrix(0.05 0 0 -0.05 973.42 247.86)"  >
<path style="stroke: none; stroke-width: 1; stroke-dasharray: none; stroke-linecap: butt; stroke-dashoffset: 0; stroke-linejoin: miter; stroke-miterlimit: 4; fill: rgb(138,107,255); fill-rule: nonzero; opacity: 1;" vector-effect="non-scaling-stroke"  transform=" translate(-29221, -20382.25)" d="M 29075.5 20382.3 C 29075.5 20301.899999999998 29140.6 20236.7 29221 20236.7 C 29301.4 20236.7 29366.5 20301.9 29366.5 20382.3 C 29366.5 20462.6 29301.4 20527.8 29221 20527.8 C 29140.6 20527.8 29075.5 20462.6 29075.5 20382.3" stroke-linecap="round" />
</g>
<g transform="matrix(0.05 0 0 -0.05 834.52 247.86)"  >
<path style="stroke: none; stroke-width: 1; stroke-dasharray: none; stroke-linecap: butt; stroke-dashoffset: 0; stroke-linejoin: miter; stroke-miterlimit: 4; fill: rgb(207,210,211); fill-rule: nonzero; opacity: 1;" vector-effect="non-scaling-stroke"  transform=" translate(-26319.4, -20382.25)" d="M 27286 20382.2 C 27286 20302.2 27196 20236.7 27086 20236.7 L 25552.8 20236.7 C 25442.8 20236.7 25352.8 20302.2 25352.8 20382.2 C 25352.8 20462.3 25442.8 20527.8 25552.8 20527.8 L 27086 20527.8 C 27196 20527.8 27286 20462.3 27286 20382.2" stroke-linecap="round" />
</g>
<g transform="matrix(0.05 0 0 -0.05 872.17 297.32)"  >
<path style="stroke: none; stroke-width: 1; stroke-dasharray: none; stroke-linecap: butt; stroke-dashoffset: 0; stroke-linejoin: miter; stroke-miterlimit: 4; fill: rgb(229,231,232); fill-rule: nonzero; opacity: 1;" vector-effect="non-scaling-stroke"  transform=" translate(-27078.15, -19357.75)" d="M 28526.4 19253.8 L 25630 19253.8 C 25572.6 19253.8 25526 19300.399999999998 25526 19357.8 C 25526 19415.2 25572.6 19461.7 25630 19461.7 L 28526.4 19461.7 C 28583.800000000003 19461.7 28630.300000000003 19415.2 28630.300000000003 19357.8 C 28630.300000000003 19300.399999999998 28583.800000000003 19253.8 28526.4 19253.8" stroke-linecap="round" />
</g>
<g transform="matrix(0.05 0 0 -0.05 870.21 320.64)"  >
<path style="stroke: none; stroke-width: 1; stroke-dasharray: none; stroke-linecap: butt; stroke-dashoffset: 0; stroke-linejoin: miter; stroke-miterlimit: 4; fill: rgb(229,231,232); fill-rule: nonzero; opacity: 1;" vector-effect="non-scaling-stroke"  transform=" translate(-27057.4, -18875.15)" d="M 27930.5 18771.2 L 26184.3 18771.2 C 26126.899999999998 18771.2 26080.399999999998 18817.8 26080.399999999998 18875.2 C 26080.399999999998 18932.600000000002 26126.899999999998 18979.100000000002 26184.3 18979.100000000002 L 27930.5 18979.100000000002 C 27987.9 18979.100000000002 28034.4 18932.600000000002 28034.4 18875.2 C 28034.4 18817.8 27987.9 18771.2 27930.5 18771.2" stroke-linecap="round" />
</g>
<g transform="matrix(0.05 0 0 -0.05 896.19 343.98)"  >
<path style="stroke: none; stroke-width: 1; stroke-dasharray: none; stroke-linecap: butt; stroke-dashoffset: 0; stroke-linejoin: miter; stroke-miterlimit: 4; fill: rgb(229,231,232); fill-rule: nonzero; opacity: 1;" vector-effect="non-scaling-stroke"  transform=" translate(-27577.05, -18392.55)" d="M 28969.8 18288.6 L 26184.3 18288.6 C 26126.899999999998 18288.6 26080.399999999998 18335.199999999997 26080.399999999998 18392.6 C 26080.399999999998 18450 26126.899999999998 18496.5 26184.3 18496.5 L 28969.8 18496.5 C 29027.2 18496.5 29073.7 18450 29073.7 18392.6 C 29073.7 18335.199999999997 29027.2 18288.6 28969.8 18288.6" stroke-linecap="round" />
</g>
<g transform="matrix(0.05 0 0 -0.05 902.89 367.31)"  >
<path style="stroke: none; stroke-width: 1; stroke-dasharray: none; stroke-linecap: butt; stroke-dashoffset: 0; stroke-linejoin: miter; stroke-miterlimit: 4; fill: rgb(229,231,232); fill-rule: nonzero; opacity: 1;" vector-effect="non-scaling-stroke"  transform=" translate(-27736.45, -17909.95)" d="M 28526.4 17806 L 26946.5 17806 C 26889.1 17806 26842.6 17852.5 26842.6 17910 C 26842.6 17967.4 26889.1 18013.9 26946.5 18013.9 L 28526.4 18013.9 C 28583.800000000003 18013.9 28630.300000000003 17967.4 28630.300000000003 17910 C 28630.300000000003 17852.5 28583.800000000003 17806 28526.4 17806" stroke-linecap="round" />
</g>
<g transform="matrix(0.05 0 0 -0.05 908.32 390.63)"  >
<path style="stroke: none; stroke-width: 1; stroke-dasharray: none; stroke-linecap: butt; stroke-dashoffset: 0; stroke-linejoin: miter; stroke-miterlimit: 4; fill: rgb(229,231,232); fill-rule: nonzero; opacity: 1;" vector-effect="non-scaling-stroke"  transform=" translate(-27819.6, -17427.35)" d="M 29454.9 17323.4 L 26184.300000000003 17323.4 C 26126.9 17323.4 26080.4 17369.9 26080.4 17427.4 C 26080.4 17484.800000000003 26126.9 17531.300000000003 26184.300000000003 17531.300000000003 L 29454.9 17531.300000000003 C 29512.300000000003 17531.300000000003 29558.800000000003 17484.800000000003 29558.800000000003 17427.4 C 29558.800000000003 17369.9 29512.300000000003 17323.4 29454.9 17323.4" stroke-linecap="round" />
</g>
<g transform="matrix(0.05 0 0 -0.05 835.43 413.97)"  >
<path style="stroke: none; stroke-width: 1; stroke-dasharray: none; stroke-linecap: butt; stroke-dashoffset: 0; stroke-linejoin: miter; stroke-miterlimit: 4; fill: rgb(229,231,232); fill-rule: nonzero; opacity: 1;" vector-effect="non-scaling-stroke"  transform=" translate(-26343.65, -16944.75)" d="M 27057.4 16840.8 L 25630 16840.8 C 25572.6 16840.8 25526 16887.3 25526 16944.7 C 25526 17002.100000000002 25572.6 17048.7 25630 17048.7 L 27057.4 17048.7 C 27114.7 17048.7 27161.300000000003 17002.100000000002 27161.300000000003 16944.7 C 27161.300000000003 16887.3 27114.700000000004 16840.8 27057.4 16840.8" stroke-linecap="round" />
</g>
<g transform="matrix(0.05 0 0 -0.05 885.11 437.3)"  >
<path style="stroke: none; stroke-width: 1; stroke-dasharray: none; stroke-linecap: butt; stroke-dashoffset: 0; stroke-linejoin: miter; stroke-miterlimit: 4; fill: rgb(229,231,232); fill-rule: nonzero; opacity: 1;" vector-effect="non-scaling-stroke"  transform=" translate(-27355.35, -16462.15)" d="M 28526.4 16358.2 L 26184.300000000003 16358.2 C 26126.9 16358.2 26080.4 16404.7 26080.4 16462.100000000002 C 26080.4 16519.600000000002 26126.9 16566.100000000002 26184.300000000003 16566.100000000002 L 28526.4 16566.100000000002 C 28583.800000000003 16566.100000000002 28630.300000000003 16519.600000000002 28630.300000000003 16462.100000000002 C 28630.300000000003 16404.7 28583.800000000003 16358.200000000003 28526.4 16358.200000000003" stroke-linecap="round" />
</g>
<g transform="matrix(0.05 0 0 -0.05 109.94 450.18)"  >
<path style="stroke: none; stroke-width: 1; stroke-dasharray: none; stroke-linecap: butt; stroke-dashoffset: 0; stroke-linejoin: miter; stroke-miterlimit: 4; fill: rgb(138,106,254); fill-rule: nonzero; opacity: 1;" vector-effect="non-scaling-stroke"  transform=" translate(-11303.99, -16252.65)" d="M 12135 16073.4 C 12097.5 15896.4 12004.5 15739.9 11875 15622.9 C 11786.5 15542.4 11681 15480.4 11564.5 15442.9 C 11482.5 15416.4 11395 15402.4 11304 15402.4 C 11213 15402.4 11125.5 15416.4 11043.5 15442.9 C 10927.5 15480.4 10822 15541.9 10733.5 15622.4 C 10604 15739.4 10511 15896.4 10472.5 16073.4 C 10460.5 16130.9 10454 16190.9 10454 16252.4 C 10454 16313.9 10460.5 16373.9 10473 16431.9 C 10511 16608.9 10604 16765.4 10733.5 16882.4 C 10822 16962.9 10927.5 17024.4 11044 17061.9 C 11126 17088.4 11213.5 17102.4 11304 17102.4 C 11395 17102.4 11482.5 17088.4 11564.5 17061.9 C 11681 17024.4 11786.5 16962.4 11875 16881.9 C 12004 16764.9 12097 16608.4 12135 16431.9 C 12147.5 16373.900000000001 12154 16313.900000000001 12154 16252.400000000001 C 12154 16190.900000000001 12147.5 16130.900000000001 12135 16073.400000000001 z M 12740 16252.4 C 12740 16307.9 12737 16362.9 12730.5 16416.9 L 13039.5 16595.4 C 12962.5 16986.4 12756.5 17331.4 12468 17583.4 L 12159.5 17405.4 C 12072 17470.9 11976.5 17526.4 11875 17569.9 L 11875 17926.4 C 11696 17987.9 11503.5 18020.9 11304 18020.9 C 11104.5 18020.9 10912.5 17987.9 10733.5 17926.9 L 10733.5 17569.9 C 10632 17526.4 10536.5 17470.9 10449 17405.4 L 10140 17583.9 C 9851.46 17331.4 9645.48 16986.4 9568.48 16595.4 L 9877.98 16416.4 C 9871.48 16362.400000000001 9868.48 16307.900000000001 9868.48 16252.400000000001 C 9868.48 16196.900000000001 9871.48 16141.900000000001 9877.98 16088.400000000001 L 9568.97 15909.900000000001 C 9645.48 15518.400000000001 9851.46 15173.400000000001 10140.5 14921.400000000001 L 10449 15099.400000000001 C 10536.5 15034.400000000001 10632 14978.900000000001 10733.5 14934.900000000001 L 10733.5 14578.400000000001 C 10912.5 14517.400000000001 11104.5 14484.400000000001 11304 14484.400000000001 C 11503.5 14484.400000000001 11696 14517.400000000001 11875 14578.900000000001 L 11875 14934.900000000001 C 11976.5 14978.900000000001 12072 15034.400000000001 12159.5 15099.400000000001 L 12468 14921.400000000001 C 12756.5 15173.900000000001 12962.5 15518.400000000001 13039 15909.900000000001 L 12730.5 16088.400000000001 C 12737 16141.900000000001 12740 16196.900000000001 12740 16252.400000000001" stroke-linecap="round" />
</g>
<g transform="matrix(0.05 0 0 -0.05 262.68 222.66)"  >
<path style="stroke: none; stroke-width: 1; stroke-dasharray: none; stroke-linecap: butt; stroke-dashoffset: 0; stroke-linejoin: miter; stroke-miterlimit: 4; fill: rgb(138,107,255); fill-rule: nonzero; opacity: 1;" vector-effect="non-scaling-stroke"  transform=" translate(-14471.95, -20926.25)" d="M 15971.9 20515 C 15971.9 20295 15791.8 20115 15571.9 20115 L 13372 20115 C 13152 20115 12972 20295 12972 20515 L 12972 21337.5 C 12972 21557.5 13152 21737.5 13372 21737.5 L 15571.9 21737.5 C 15791.8 21737.5 15971.9 21557.5 15971.9 21337.5 L 15971.9 20515" stroke-linecap="round" />
</g>
<g transform="matrix(0.05 0 0 -0.05 298.94 222.21)"  >
<path style="stroke: none; stroke-width: 1; stroke-dasharray: none; stroke-linecap: butt; stroke-dashoffset: 0; stroke-linejoin: miter; stroke-miterlimit: 4; fill: rgb(229,231,232); fill-rule: nonzero; opacity: 1;" vector-effect="non-scaling-stroke"  transform=" translate(-15263.09, -20926.23)" d="M 15056.8 20395 C 15032 20395 15007.099999999999 20404.2 14987.699999999999 20422.7 C 14947.8 20460.9 14946.4 20524.2 14984.599999999999 20564.100000000002 L 15330.999999999998 20926.2 L 14984.599999999999 21288.4 C 14946.399999999998 21328.300000000003 14947.8 21391.600000000002 14987.699999999999 21429.7 C 15027.599999999999 21467.9 15090.9 21466.5 15129.099999999999 21426.600000000002 L 15541.599999999999 20995.300000000003 C 15578.599999999999 20956.700000000004 15578.599999999999 20895.800000000003 15541.599999999999 20857.100000000002 L 15129.099999999999 20425.9 C 15109.499999999998 20405.300000000003 15083.199999999999 20395 15056.8 20395" stroke-linecap="round" />
</g>
<g transform="matrix(0.05 0 0 -0.05 222.45 222.21)"  >
<path style="stroke: none; stroke-width: 1; stroke-dasharray: none; stroke-linecap: butt; stroke-dashoffset: 0; stroke-linejoin: miter; stroke-miterlimit: 4; fill: rgb(229,231,232); fill-rule: nonzero; opacity: 1;" vector-effect="non-scaling-stroke"  transform=" translate(-13680.77, -20926.23)" d="M 13887 20395 C 13860.7 20395 13834.4 20405.3 13814.7 20425.9 L 13402.2 20857.100000000002 C 13365.300000000001 20895.800000000003 13365.300000000001 20956.7 13402.2 20995.300000000003 L 13814.7 21426.600000000002 C 13852.900000000001 21466.500000000004 13916.2 21467.9 13956.1 21429.7 C 13996 21391.600000000002 13997.5 21328.3 13959.300000000001 21288.4 L 13612.900000000001 20926.2 L 13959.300000000001 20564.100000000002 C 13997.500000000002 20524.2 13996.000000000002 20460.9 13956.1 20422.7 C 13936.800000000001 20404.2 13911.9 20395 13887 20395" stroke-linecap="round" />
</g>
<g transform="matrix(0.05 0 0 -0.05 260.63 222.21)"  >
<path style="stroke: none; stroke-width: 1; stroke-dasharray: none; stroke-linecap: butt; stroke-dashoffset: 0; stroke-linejoin: miter; stroke-miterlimit: 4; fill: rgb(229,231,232); fill-rule: nonzero; opacity: 1;" vector-effect="non-scaling-stroke"  transform=" translate(-14471.93, -20926.21)" d="M 14309.4 20394.9 C 14297.699999999999 20394.9 14285.8 20397 14274.199999999999 20401.4 C 14222.499999999998 20420.9 14196.4 20478.5 14215.8 20530.2 L 14540.8 21392.7 C 14560.3 21444.4 14618 21470.5 14669.699999999999 21451.100000000002 C 14721.4 21431.600000000002 14747.499999999998 21373.9 14727.999999999998 21322.2 L 14402.999999999998 20459.7 C 14387.899999999998 20419.7 14349.799999999997 20394.9 14309.399999999998 20394.9" stroke-linecap="round" />
</g>
<g transform="matrix(0.05 0 0 -0.05 543.38 785.42)"  >
<path style="stroke: none; stroke-width: 1; stroke-dasharray: none; stroke-linecap: butt; stroke-dashoffset: 0; stroke-linejoin: miter; stroke-miterlimit: 4; fill: rgb(216,216,230); fill-rule: nonzero; opacity: 1;" vector-effect="non-scaling-stroke"  transform=" translate(-20129.7, -9337.15)" d="M 25965.7 10007.5 C 25965.7 9090.5 23352.8 7006.5 20129.7 7006.5 C 16906.5 7006.5 14293.7 9090.5 14293.7 10007.4 C 14293.7 10924.4 16906.5 11667.8 20129.7 11667.8 C 23352.8 11667.8 25965.7 10924.4 25965.7 10007.5" stroke-linecap="round" />
</g>
<g transform="matrix(0.05 0 0 -0.05 539.69 730.56)"  >
<path style="stroke: none; stroke-width: 1; stroke-dasharray: none; stroke-linecap: butt; stroke-dashoffset: 0; stroke-linejoin: miter; stroke-miterlimit: 4; fill: rgb(41,47,82); fill-rule: nonzero; opacity: 1;" vector-effect="non-scaling-stroke"  transform=" translate(-20061.1, -10464.19)" d="M 23250.7 12531.8 C 23651.5 12502.199999999999 25625 11861.4 25675 11311.4 C 25725 10761.4 21525 8336.4 19684.4 8361.4 C 17843.9 8386.4 14325.000000000002 10661.4 14450.000000000002 11203.099999999999 C 14575.000000000002 11744.699999999999 15905.900000000001 12468.199999999999 16725 12531.8 C 17750 12611.4 23250.7 12531.8 23250.7 12531.8" stroke-linecap="round" />
</g>
<g transform="matrix(0.05 0 0 -0.05 544.57 828.69)"  >
<path style="stroke: none; stroke-width: 1; stroke-dasharray: none; stroke-linecap: butt; stroke-dashoffset: 0; stroke-linejoin: miter; stroke-miterlimit: 4; fill: rgb(41,47,82); fill-rule: nonzero; opacity: 1;" vector-effect="non-scaling-stroke"  transform=" translate(-20312.07, -8401.59)" d="M 19583.3 9554.1 C 19862.5 9486.4 20350 9111.4 20525 9011.4 C 20700 8911.4 21462.5 8448.9 21525 8248.9 C 21587.5 8048.9 21575 7461.4 21150 7286.4 C 20725 7111.4 19300 7598.9 19112.5 7773.9 C 18900 9161.4 19583.3 9554.1 19583.3 9554.1" stroke-linecap="round" />
</g>
<g transform="matrix(0.05 0 0 -0.05 392.71 774.53)"  >
<path style="stroke: none; stroke-width: 1; stroke-dasharray: none; stroke-linecap: butt; stroke-dashoffset: 0; stroke-linejoin: miter; stroke-miterlimit: 4; fill: rgb(62,68,99); fill-rule: nonzero; opacity: 1;" vector-effect="non-scaling-stroke"  transform=" translate(-17117.48, -9543.08)" d="M 14446.7 11261.4 C 14303.300000000001 11048.9 14262.5 10198.9 14450 9898.9 C 14637.5 9598.9 16662.5 8248.9 19000 7773.9 C 18925 8123.9 19744.5 9154.1 19911.1 9336.4 C 18202.8 10177.1 15749.999999999998 11598.9 14446.699999999999 11261.4" stroke-linecap="round" />
</g>
<g transform="matrix(0.05 0 0 -0.05 467.25 843.77)"  >
<path style="stroke: none; stroke-width: 1; stroke-dasharray: none; stroke-linecap: butt; stroke-dashoffset: 0; stroke-linejoin: miter; stroke-miterlimit: 4; fill: rgb(41,47,82); fill-rule: nonzero; opacity: 1;" vector-effect="non-scaling-stroke"  transform=" translate(-18703.08, -8087.3)" d="M 19758.3 9153.1 C 18687.5 9273.9 17322.7 8636.4 17223.8 8236.4 C 17125 7836.4 17212.5 7361.4 17462.5 7123.9 C 17712.5 6886.4 19358.3 6986.299999999999 20191.7 7636.4 C 20362.5 8311.4 19758.3 9153.1 19758.3 9153.1" stroke-linecap="round" />
</g>
<g transform="matrix(0.05 0 0 -0.05 486.39 839.55)"  >
<path style="stroke: none; stroke-width: 1; stroke-dasharray: none; stroke-linecap: butt; stroke-dashoffset: 0; stroke-linejoin: miter; stroke-miterlimit: 4; fill: rgb(138,62,255); fill-rule: nonzero; opacity: 1;" vector-effect="non-scaling-stroke"  transform=" translate(-19118.77, -8164.84)" d="M 19742.7 8960.2 C 19295.8 8978.1 18425 8748.900000000001 18175 8523.900000000001 C 18325 8136.4000000000015 18437.5 7573.9000000000015 18312.5 7386.4000000000015 C 18812.5 7298.9000000000015 19784.7 7548.9000000000015 20061.1 7773.9000000000015 C 20087.5 8136.4000000000015 19742.699999999997 8960.2 19742.699999999997 8960.2" stroke-linecap="round" />
</g>
<g transform="matrix(0.05 0 0 -0.05 667.9 777.56)"  >
<path style="stroke: none; stroke-width: 1; stroke-dasharray: none; stroke-linecap: butt; stroke-dashoffset: 0; stroke-linejoin: miter; stroke-miterlimit: 4; fill: rgb(62,68,99); fill-rule: nonzero; opacity: 1;" vector-effect="non-scaling-stroke"  transform=" translate(-22800.98, -9483.18)" d="M 25675 11311.4 C 25866.9 10986.4 25975 10136.4 25675 9836.4 C 25375 9536.4 22175 7919.7 20191.7 7636.4 C 19891.7 7919.7 19675 8986.4 19758.3 9153.1 C 21091.7 10169.7 24108.3 11503.1 25675 11311.400000000001" stroke-linecap="round" />
</g>
<g transform="matrix(0.05 0 0 -0.05 528.66 541.12)"  >
<path style="stroke: none; stroke-width: 1; stroke-dasharray: none; stroke-linecap: butt; stroke-dashoffset: 0; stroke-linejoin: miter; stroke-miterlimit: 4; fill: rgb(138,62,255); fill-rule: nonzero; opacity: 1;" vector-effect="non-scaling-stroke"  transform=" translate(-19911.1, -14434.33)" d="M 23075.4 13853.3 C 23128.600000000002 13179.9 22787.9 13103.3 22550.4 12940.8 C 22312.9 12778.3 22387.9 12290.8 22475.4 11465.8 C 21937.9 11040.8 19025.4 10403.3 17412.9 11265.8 C 17450.4 11503.3 17475.4 12153.3 17437.9 12440.8 C 17400.4 12728.3 17262.9 12890.8 16775.4 13178.3 C 16287.900000000001 13465.8 16800.4 16553.3 17012.9 16815.8 C 17225.4 17078.3 18537.9 17903.3 19225.4 18003.3 C 19225.4 18003.3 20275.4 18065.8 20700.4 18003.3 C 21125.4 17940.8 22662.9 17215.8 23075.4 16740.8 C 23487.9 16265.8 23037.9 14328.3 23075.4 13853.3" stroke-linecap="round" />
</g>
<g transform="matrix(0.05 0 0 -0.05 660.57 548.64)"  >
<path style="stroke: none; stroke-width: 1; stroke-dasharray: none; stroke-linecap: butt; stroke-dashoffset: 0; stroke-linejoin: miter; stroke-miterlimit: 4; fill: rgb(138,107,255); fill-rule: nonzero; opacity: 1;" vector-effect="non-scaling-stroke"  transform=" translate(-22709.74, -14260.1)" d="M 21608.3 11203.1 C 21675 11219.7 23075 11453.1 23691.7 11903.1 C 24556.100000000002 12533.800000000001 23424.3 16319.3 23134.600000000002 16651.6 C 23134.600000000002 16651.6 22912.9 17015.8 22281.4 17317.1 C 21800.4 17028.3 21915 15699.199999999999 21950.4 15428.3 C 22058.300000000003 14603.099999999999 22399.5 13465.3 22475 13203.099999999999 C 22291.7 13003.099999999999 21408.3 12603.099999999999 21408.3 12603.099999999999 L 21608.3 11203.099999999999" stroke-linecap="round" />
</g>
<g transform="matrix(0.05 0 0 -0.05 395.18 551.31)"  >
<path style="stroke: none; stroke-width: 1; stroke-dasharray: none; stroke-linecap: butt; stroke-dashoffset: 0; stroke-linejoin: miter; stroke-miterlimit: 4; fill: rgb(138,107,255); fill-rule: nonzero; opacity: 1;" vector-effect="non-scaling-stroke"  transform=" translate(-17223.81, -14205.86)" d="M 18408.3 11119.7 C 18408.3 11119.7 17808.7 11091.900000000001 17241.7 11286.400000000001 C 15202.400000000001 11986.000000000002 16200.400000000001 15890.800000000001 17012.9 16815.800000000003 C 17012.9 16815.800000000003 17286.300000000003 17110.200000000004 17645.600000000002 17293.4 C 17940.800000000003 17171 18178.500000000004 16392.800000000003 18004.600000000002 15503.100000000002 C 17841.7 14669.700000000003 17608.300000000003 13053.100000000002 17608.300000000003 12886.400000000001 C 17791.700000000004 12753.100000000002 18325.000000000004 12486.400000000001 18325.000000000004 12486.400000000001 L 18408.300000000003 11119.7" stroke-linecap="round" />
</g>
<g transform="matrix(0.05 0 0 -0.05 530.46 630.18)"  >
<path style="stroke: none; stroke-width: 1; stroke-dasharray: none; stroke-linecap: butt; stroke-dashoffset: 0; stroke-linejoin: miter; stroke-miterlimit: 4; fill: rgb(207,210,211); fill-rule: nonzero; opacity: 1;" vector-effect="non-scaling-stroke"  transform=" translate(-19958.3, -12531.8)" d="M 22757.5 10686.4 L 17159.1 10686.4 L 16916.6 14205.9 C 18367.899999999998 14434.3 21787.3 14434.3 23000 14205.9 L 22757.5 10686.4" stroke-linecap="round" />
</g>
<g transform="matrix(0.05 0 0 -0.05 526.03 627.74)"  >
<path style="stroke: none; stroke-width: 1; stroke-dasharray: none; stroke-linecap: butt; stroke-dashoffset: 0; stroke-linejoin: miter; stroke-miterlimit: 4; fill: rgb(230,232,232); fill-rule: nonzero; opacity: 1;" vector-effect="non-scaling-stroke"  transform=" translate(-19958.3, -12531.8)" d="M 20333.3 12531.8 C 20333.3 12324.699999999999 20165.399999999998 12156.8 19958.3 12156.8 C 19751.2 12156.8 19583.3 12324.699999999999 19583.3 12531.8 C 19583.3 12739 19751.2 12906.8 19958.3 12906.8 C 20165.399999999998 12906.8 20333.3 12739 20333.3 12531.8" stroke-linecap="round" />
</g>
<g transform="matrix(0.05 0 0 -0.05 529.96 723.62)"  >
<path style="stroke: none; stroke-width: 1; stroke-dasharray: none; stroke-linecap: butt; stroke-dashoffset: 0; stroke-linejoin: miter; stroke-miterlimit: 4; fill: rgb(162,169,173); fill-rule: nonzero; opacity: 1;" vector-effect="non-scaling-stroke"  transform=" translate(-19956.35, -10540.6)" d="M 22757.5 10686.4 L 22757.5 10394.8 L 17155.2 10394.8 L 17159.100000000002 10686.4 L 22757.5 10686.4" stroke-linecap="round" />
</g>
<g transform="matrix(0.05 0 0 -0.05 527.33 354.35)"  >
<path style="stroke: none; stroke-width: 1; stroke-dasharray: none; stroke-linecap: butt; stroke-dashoffset: 0; stroke-linejoin: miter; stroke-miterlimit: 4; fill: rgb(255,169,147); fill-rule: nonzero; opacity: 1;" vector-effect="non-scaling-stroke"  transform=" translate(-19965.01, -18201.11)" d="M 20829.6 18728.3 C 20808 18503.2 20787.899999999998 17944.899999999998 20929.6 17744.899999999998 C 20387.899999999998 17269.899999999998 19346.3 17361.6 19004.6 17686.6 C 19079.6 17953.3 19079.6 18503.3 19004.6 18678.3 C 18929.6 18853.3 19887.899999999998 18986.6 19887.899999999998 18986.6 L 20829.6 18728.3" stroke-linecap="round" />
</g>
<g transform="matrix(0.05 0 0 -0.05 520.47 249.65)"  >
<path style="stroke: none; stroke-width: 1; stroke-dasharray: none; stroke-linecap: butt; stroke-dashoffset: 0; stroke-linejoin: miter; stroke-miterlimit: 4; fill: rgb(194,162,118); fill-rule: nonzero; opacity: 1;" vector-effect="non-scaling-stroke"  transform=" translate(-19794.45, -20411.26)" d="M 18226.4 20102.9 C 17559.100000000002 21686.800000000003 18554.600000000002 21736.600000000002 18554.600000000002 21736.600000000002 C 18771.2 22464.4 20120.500000000004 22576.9 20571.2 22419.9 C 21312.9 22161.600000000002 21824.600000000002 21370.9 21486.2 20157.100000000002 C 21486.2 20157.100000000002 21069.100000000002 18337.7 20062.9 18340.800000000003 C 19053.5 18343.9 18226.4 20102.9 18226.4 20102.9" stroke-linecap="round" />
</g>
<g transform="matrix(0.05 0 0 -0.05 592.24 279.85)"  >
<path style="stroke: none; stroke-width: 1; stroke-dasharray: none; stroke-linecap: butt; stroke-dashoffset: 0; stroke-linejoin: miter; stroke-miterlimit: 4; fill: rgb(255,169,147); fill-rule: nonzero; opacity: 1;" vector-effect="non-scaling-stroke"  transform=" translate(-21328.43, -19732.45)" d="M 21687.8 19732.4 C 21687.8 19346.800000000003 21343.5 19236.600000000002 21129.5 19236.600000000002 C 20915.4 19236.600000000002 20977.4 19580.9 20977.4 19797.2 C 20977.4 20013.600000000002 21007.100000000002 20228.3 21221.2 20228.3 C 21435.2 20228.3 21687.8 20128.3 21687.8 19732.399999999998" stroke-linecap="round" />
</g>
<g transform="matrix(0.05 0 0 -0.05 448.94 283.29)"  >
<path style="stroke: none; stroke-width: 1; stroke-dasharray: none; stroke-linecap: butt; stroke-dashoffset: 0; stroke-linejoin: miter; stroke-miterlimit: 4; fill: rgb(255,169,147); fill-rule: nonzero; opacity: 1;" vector-effect="non-scaling-stroke"  transform=" translate(-18363.96, -19661.3)" d="M 18004.6 19661.3 C 18004.6 19275.7 18348.899999999998 19165.5 18562.899999999998 19165.5 C 18776.899999999998 19165.5 18714.999999999996 19509.8 18714.999999999996 19726.1 C 18714.999999999996 19942.399999999998 18685.299999999996 20157.1 18471.199999999997 20157.1 C 18257.199999999997 20157.1 18004.6 20057.1 18004.6 19661.3" stroke-linecap="round" />
</g>
<g transform="matrix(0.05 0 0 -0.05 513.21 355.88)"  >
<path style="stroke: none; stroke-width: 1; stroke-dasharray: none; stroke-linecap: butt; stroke-dashoffset: 0; stroke-linejoin: miter; stroke-miterlimit: 4; fill: rgb(255,125,113); fill-rule: nonzero; opacity: 1;" vector-effect="non-scaling-stroke"  transform=" translate(-19684.45, -18151.12)" d="M 20313.9 18031.1 C 19921.2 17853.3 19322.100000000002 17875.5 19055 18031.1 C 19060.1 18153.5 19063 18307.6 19055 18396.3 C 19371.2 18295 20313.9 18031.1 20313.9 18031.1" stroke-linecap="round" />
</g>
<g transform="matrix(0.05 0 0 -0.05 524.5 283.65)"  >
<path style="stroke: none; stroke-width: 1; stroke-dasharray: none; stroke-linecap: butt; stroke-dashoffset: 0; stroke-linejoin: miter; stroke-miterlimit: 4; fill: rgb(255,178,158); fill-rule: nonzero; opacity: 1;" vector-effect="non-scaling-stroke"  transform=" translate(-19887.9, -19694.95)" d="M 18379.6 20045 C 18379.6 18845 18979.6 18003.3 20062.899999999998 18003.3 C 21146.199999999997 18003.3 21396.199999999997 19420 21396.199999999997 20045 C 21396.199999999997 20670 20387.899999999998 21386.6 19846.299999999996 21386.6 C 18529.599999999995 21386.6 18379.599999999995 20045 18379.599999999995 20045" stroke-linecap="round" />
</g>
<g transform="matrix(0.05 0 0 -0.05 524.52 243.17)"  >
<path style="stroke: none; stroke-width: 1; stroke-dasharray: none; stroke-linecap: butt; stroke-dashoffset: 0; stroke-linejoin: miter; stroke-miterlimit: 4; fill: rgb(255,125,113); fill-rule: nonzero; opacity: 1;" vector-effect="non-scaling-stroke"  transform=" translate(-19888.19, -20500.72)" d="M 18379.6 19732.4 C 18821.3 20011.600000000002 18937.5 20470.7 19037.899999999998 20528.300000000003 C 19619.199999999997 20861.600000000002 20022.3 20275.500000000004 20837.899999999998 20561.600000000002 C 20837.899999999998 20561.600000000002 21004.6 20047.500000000004 21396.199999999997 19890.000000000004 C 21414.499999999996 20221.300000000003 20992.699999999997 20787.100000000002 20744.399999999998 21011.800000000003 C 20496.199999999997 21236.600000000002 19054.1 21485.200000000004 18787.699999999997 20944.200000000004 C 18521.199999999997 20403.300000000003 18379.6 19732.400000000005 18379.6 19732.400000000005" stroke-linecap="round" />
</g>
<g transform="matrix(0.05 0 0 -0.05 522.02 231.24)"  >
<path style="stroke: none; stroke-width: 1; stroke-dasharray: none; stroke-linecap: butt; stroke-dashoffset: 0; stroke-linejoin: miter; stroke-miterlimit: 4; fill: rgb(194,162,118); fill-rule: nonzero; opacity: 1;" vector-effect="non-scaling-stroke"  transform=" translate(-19831.36, -20756.03)" d="M 18379.6 19732.4 C 18704.6 19944.9 18862.899999999998 20420 18887.899999999998 20603.300000000003 C 19621.199999999997 21144.9 20171.199999999997 20444.9 20896.199999999997 20653.300000000003 C 20954.6 20386.600000000002 21221.199999999997 19993.4 21396.199999999997 19890.000000000004 C 21428.499999999996 20099.500000000004 21542.999999999996 20445.600000000002 21451.399999999998 20679.000000000004 C 21359.699999999997 20912.300000000003 21248.999999999996 21736.600000000002 19805.999999999996 21778.300000000003 C 18362.899999999998 21819.9 18146.299999999996 20894.9 18179.599999999995 20611.600000000002 C 18212.899999999994 20328.300000000003 18379.599999999995 19732.4 18379.599999999995 19732.4" stroke-linecap="round" />
</g>
<g transform="matrix(0.05 0 0 -0.05 549.66 282.97)"  >
<path style="stroke: none; stroke-width: 1; stroke-dasharray: none; stroke-linecap: butt; stroke-dashoffset: 0; stroke-linejoin: miter; stroke-miterlimit: 4; fill: rgb(41,47,82); fill-rule: nonzero; opacity: 1;" vector-effect="non-scaling-stroke"  transform=" translate(-20456.65, -19656.4)" d="M 20550.4 19656.4 C 20550.4 19568.4 20508.4 19497 20456.600000000002 19497 C 20404.9 19497 20362.9 19568.4 20362.9 19656.4 C 20362.9 19744.4 20404.9 19815.800000000003 20456.600000000002 19815.800000000003 C 20508.4 19815.800000000003 20550.4 19744.4 20550.4 19656.4" stroke-linecap="round" />
</g>
<g transform="matrix(0.05 0 0 -0.05 500.26 282.97)"  >
<path style="stroke: none; stroke-width: 1; stroke-dasharray: none; stroke-linecap: butt; stroke-dashoffset: 0; stroke-linejoin: miter; stroke-miterlimit: 4; fill: rgb(41,47,82); fill-rule: nonzero; opacity: 1;" vector-effect="non-scaling-stroke"  transform=" translate(-19434.75, -19656.4)" d="M 19528.5 19656.4 C 19528.5 19568.4 19486.5 19497 19434.8 19497 C 19383 19497 19341 19568.4 19341 19656.4 C 19341 19744.4 19383 19815.800000000003 19434.8 19815.800000000003 C 19486.5 19815.800000000003 19528.5 19744.4 19528.5 19656.4" stroke-linecap="round" />
</g>
<g transform="matrix(0.05 0 0 -0.05 552.82 251.92)"  >
<path style="stroke: none; stroke-width: 1; stroke-dasharray: none; stroke-linecap: butt; stroke-dashoffset: 0; stroke-linejoin: miter; stroke-miterlimit: 4; fill: rgb(255,113,103); fill-rule: nonzero; opacity: 1;" vector-effect="non-scaling-stroke"  transform=" translate(-20519, -20295.71)" d="M 20329.1 20232.6 C 20329.1 20232.6 20329.699999999997 20234.8 20330.8 20238.8 C 20332.1 20242.7 20333.7 20249.5 20336.899999999998 20255.8 C 20342.999999999996 20269.399999999998 20353.199999999997 20287.6 20369.3 20303.899999999998 C 20377.2 20312.6 20386.3 20321.399999999998 20397.2 20328.199999999997 C 20407.5 20335.999999999996 20419.3 20343.199999999997 20432 20349.1 C 20445 20354.3 20458.6 20360 20473.2 20362.6 C 20487.7 20365.899999999998 20502.7 20367.6 20518 20367.899999999998 C 20533.2 20367.999999999996 20548.4 20366.999999999996 20563.3 20363.8 C 20578.2 20361.7 20592.5 20356.3 20605.899999999998 20350.8 C 20619.399999999998 20346.2 20631.3 20337.1 20642.3 20329.8 C 20653.6 20323.3 20662.8 20313.8 20670.7 20304.8 C 20687.2 20288.2 20696.7 20269.2 20702.100000000002 20255.399999999998 C 20707.500000000004 20241.499999999996 20709.300000000003 20232.6 20709.2 20232.6 L 20710 20228.6 C 20710.4 20226.3 20708.9 20224.1 20706.6 20223.699999999997 C 20705.8 20223.499999999996 20704.899999999998 20223.699999999997 20704.1 20223.999999999996 C 20704.1 20223.999999999996 20698.6 20226.599999999995 20689 20230.999999999996 C 20679.5 20235.799999999996 20665.7 20241.799999999996 20648.7 20247.599999999995 C 20640.3 20250.899999999994 20631.2 20254.199999999993 20621.100000000002 20256.399999999994 C 20611.100000000002 20258.899999999994 20600.800000000003 20262.199999999993 20589.600000000002 20263.399999999994 C 20567.500000000004 20267.099999999995 20543.600000000002 20269.199999999993 20519.7 20267.899999999994 C 20471.9 20268.399999999994 20424.2 20257.899999999994 20390.100000000002 20246.099999999995 C 20355.600000000002 20234.999999999996 20334.2 20223.999999999996 20334.2 20223.999999999996 C 20332.100000000002 20222.899999999998 20329.600000000002 20223.699999999997 20328.5 20225.799999999996 C 20327.9 20226.799999999996 20327.8 20227.799999999996 20328.1 20228.799999999996 L 20329.1 20232.599999999995" stroke-linecap="round" />
</g>
<g transform="matrix(0.05 0 0 -0.05 496.83 252)"  >
<path style="stroke: none; stroke-width: 1; stroke-dasharray: none; stroke-linecap: butt; stroke-dashoffset: 0; stroke-linejoin: miter; stroke-miterlimit: 4; fill: rgb(255,113,103); fill-rule: nonzero; opacity: 1;" vector-effect="non-scaling-stroke"  transform=" translate(-19361.41, -20294.08)" d="M 19192 20232.8 C 19192 20232.8 19193.7 20241.7 19199.2 20254.7 C 19204.7 20267.5 19213.7 20284.4 19227.600000000002 20299.8 C 19234.4 20307.8 19242.100000000002 20316.2 19251.300000000003 20322.8 C 19260.500000000004 20329.6 19270.100000000002 20337.8 19281.300000000003 20342.899999999998 C 19303.200000000004 20354.6 19329.300000000003 20361.8 19356.800000000003 20364.199999999997 C 19384.200000000004 20366.1 19413.4 20361.899999999998 19439.500000000004 20351.899999999998 C 19465.600000000002 20340.8 19488.400000000005 20324.899999999998 19503.400000000005 20306.499999999996 C 19511.100000000006 20297.499999999996 19516.700000000004 20287.699999999997 19521.100000000006 20279.299999999996 C 19525.700000000004 20271.199999999997 19527.400000000005 20261.599999999995 19529.200000000004 20254.899999999994 C 19532.200000000004 20240.599999999995 19531.800000000003 20232.099999999995 19531.800000000003 20232.099999999995 L 19531.600000000002 20227.799999999996 C 19531.500000000004 20225.499999999996 19529.600000000002 20223.799999999996 19527.300000000003 20223.899999999994 C 19526.600000000002 20223.899999999994 19525.800000000003 20224.099999999995 19525.200000000004 20224.499999999993 C 19525.200000000004 20224.499999999993 19520.700000000004 20227.399999999994 19512.900000000005 20232.499999999993 C 19505.500000000004 20238.399999999994 19493.200000000004 20243.59999999999 19478.900000000005 20250.299999999992 C 19464.100000000006 20256.09999999999 19446.300000000007 20261.199999999993 19426.500000000004 20263.89999999999 C 19406.700000000004 20266.19999999999 19385.300000000003 20266.59999999999 19364.000000000004 20264.49999999999 C 19321.100000000002 20262.099999999988 19278.600000000002 20251.79999999999 19247.700000000004 20241.69999999999 C 19216.500000000004 20231.99999999999 19196.400000000005 20223.79999999999 19196.400000000005 20223.79999999999 C 19194.400000000005 20222.99999999999 19192.100000000006 20223.899999999987 19191.300000000007 20225.899999999987 C 19191.000000000007 20226.699999999986 19190.900000000005 20227.399999999987 19191.100000000006 20228.199999999986 L 19192.000000000007 20232.799999999985" stroke-linecap="round" />
</g>
<g transform="matrix(0.05 0 0 -0.05 533.83 309.92)"  >
<path style="stroke: none; stroke-width: 1; stroke-dasharray: none; stroke-linecap: butt; stroke-dashoffset: 0; stroke-linejoin: miter; stroke-miterlimit: 4; fill: rgb(255,113,103); fill-rule: nonzero; opacity: 1;" vector-effect="non-scaling-stroke"  transform=" translate(-20129.68, -19100.08)" d="M 20128.5 19291.9 C 20128.5 19291.9 20130.9 19284.9 20134.9 19272.5 C 20138.5 19260.6 20145.9 19243.5 20153.600000000002 19222.8 C 20169.500000000004 19181.399999999998 20191.9 19125.7 20204.000000000004 19064.1 C 20209.200000000004 19033.199999999997 20213.100000000002 19000.3 20203.900000000005 18966.899999999998 C 20199.700000000004 18950.3 20189.900000000005 18933.699999999997 20176.600000000006 18922.699999999997 C 20163.300000000007 18911.499999999996 20148.000000000007 18906.199999999997 20135.100000000006 18904.199999999997 C 20108.600000000006 18899.899999999998 20089.300000000007 18905.899999999998 20075.700000000004 18908.1 C 20062.500000000004 18911.899999999998 20055.200000000004 18914.399999999998 20055.200000000004 18914.399999999998 C 20051.100000000006 18915.899999999998 20048.900000000005 18920.499999999996 20050.400000000005 18924.6 C 20051.500000000004 18927.8 20054.300000000007 18929.8 20057.500000000004 18929.899999999998 L 20058.100000000002 18929.999999999996 C 20058.100000000002 18929.999999999996 20065.600000000002 18930.299999999996 20078.2 18930.299999999996 C 20090.5 18930.799999999996 20109.2 18931.699999999997 20126.600000000002 18938.199999999997 C 20144.2 18944.999999999996 20156.300000000003 18956.1 20159.7 18977.899999999998 C 20163.5 18999.3 20160.4 19027.3 20155 19054.899999999998 C 20143.9 19110.6 20127.1 19168.199999999997 20119.2 19213.199999999997 C 20114.8 19235.6 20113.600000000002 19254.899999999998 20112.600000000002 19268.699999999997 C 20111.800000000003 19282.799999999996 20112.9 19289.999999999996 20112.9 19289.999999999996 L 20113 19290.699999999997 C 20113.7 19294.999999999996 20117.8 19297.999999999996 20122.2 19297.399999999998 C 20125.2 19296.899999999998 20127.600000000002 19294.699999999997 20128.5 19291.899999999998" stroke-linecap="round" />
</g>
<g transform="matrix(0.05 0 0 -0.05 529.22 334.74)"  >
<path style="stroke: none; stroke-width: 1; stroke-dasharray: none; stroke-linecap: butt; stroke-dashoffset: 0; stroke-linejoin: miter; stroke-miterlimit: 4; fill: rgb(255,113,103); fill-rule: nonzero; opacity: 1;" vector-effect="non-scaling-stroke"  transform=" translate(-20022.81, -18583.16)" d="M 19628.2 18672.5 C 19628.2 18672.5 19640.9 18667.3 19662.3 18657.1 C 19673.1 18651.199999999997 19686.1 18646.899999999998 19700.1 18642.1 C 19714 18636.899999999998 19729.8 18631.5 19748.5 18626.699999999997 C 19766.4 18621.199999999997 19786.4 18616.699999999997 19807.6 18612.399999999998 C 19828.399999999998 18607.1 19851.5 18605.499999999996 19874.5 18600.999999999996 C 19898 18598.499999999996 19922.2 18596.099999999995 19946.9 18594.299999999996 C 19971.800000000003 18592.699999999997 19996.9 18591.899999999994 20022.2 18592.199999999997 C 20047.5 18590.999999999996 20072.8 18593.499999999996 20097.7 18594.299999999996 C 20122.3 18597.099999999995 20147.2 18597.099999999995 20170.4 18601.299999999996 C 20193.9 18604.499999999996 20216.7 18607.299999999996 20237.9 18611.899999999994 C 20259.600000000002 18615.399999999994 20278.7 18621.499999999993 20297.600000000002 18625.299999999996 C 20315.2 18631.199999999997 20332.300000000003 18635.499999999996 20346.7 18640.699999999997 C 20360.4 18646.899999999998 20373.7 18650.899999999998 20383.600000000002 18655.6 C 20402.800000000003 18665.699999999997 20414.800000000003 18671.3 20414.800000000003 18671.3 L 20417.200000000004 18672.399999999998 C 20425.100000000006 18676.1 20434.600000000006 18672.699999999997 20438.300000000003 18664.8 C 20441.000000000004 18659 20439.800000000003 18652.399999999998 20435.9 18647.8 C 20435.9 18647.8 20426.800000000003 18637.1 20409 18618.6 C 20390.3 18601.699999999997 20361.4 18579.899999999998 20323.2 18560.1 C 20303.9 18551.8 20283.2 18539.899999999998 20260 18533.199999999997 C 20237 18524.999999999996 20212.6 18516.799999999996 20186.7 18511.6 C 20160.9 18505 20134 18501.5 20106.4 18497.3 C 20078.800000000003 18495.5 20050.800000000003 18492.1 20022.600000000002 18492.6 C 19994.4 18491.699999999997 19966.2 18494.399999999998 19938.500000000004 18496.8 C 19910.800000000003 18499 19883.800000000003 18504.899999999998 19857.800000000003 18510.2 C 19832.100000000002 18517 19807.100000000002 18522.600000000002 19784.300000000003 18532.4 C 19772.9 18536.800000000003 19761.800000000003 18541 19751.100000000002 18545.2 C 19740.800000000003 18550.5 19730.9 18555.600000000002 19721.300000000003 18560.600000000002 C 19702.300000000003 18569.7 19685.300000000003 18580.9 19670.800000000003 18591.800000000003 C 19655.800000000003 18601.9 19644.100000000002 18611.300000000003 19636.300000000003 18619.9 C 19619.4 18636.5 19610.100000000002 18646.600000000002 19610.100000000002 18646.600000000002 C 19604.100000000002 18653.2 19604.500000000004 18663.4 19611.100000000002 18669.500000000004 C 19615.800000000003 18673.800000000003 19622.600000000002 18674.800000000003 19628.2 18672.500000000004" stroke-linecap="round" />
</g>
<g transform="matrix(NaN NaN NaN NaN 0 0)"  >
<g style=""   >
</g>
</g>
<g transform="matrix(NaN NaN NaN NaN 0 0)"  >
<g style=""   >
</g>
</g>
</svg>